<mxfile host="app.diagrams.net" modified="2020-09-21T19:21:20.398Z" agent="5.0 (Windows NT 10.0; Win64; x64) AppleWebKit/537.36 (KHTML, like Gecko) Chrome/85.0.4183.83 Safari/537.36 OPR/71.0.3770.138" etag="3j7M2Phe49x0pqCiWWr-" version="13.7.3" type="github">
  <diagram id="W1sH6OFh1roLbbkazUPK" name="Page-1">
    <mxGraphModel dx="997" dy="589" grid="1" gridSize="10" guides="1" tooltips="1" connect="1" arrows="1" fold="1" page="1" pageScale="1" pageWidth="850" pageHeight="1100" math="0" shadow="0">
      <root>
        <mxCell id="0" />
        <mxCell id="1" parent="0" />
      </root>
    </mxGraphModel>
  </diagram>
</mxfile>
